<svg xmlns="http://www.w3.org/2000/svg" viewBox="0 0 971.89 789.92"><defs><style>.cls-1{fill:#213469;}.cls-2{fill:#72b0c7;}</style></defs><title>Asset 11</title><g id="Layer_2" data-name="Layer 2"><g id="Layer_1-2" data-name="Layer 1"><path class="cls-1" d="M42.92,704.44A42.68,42.68,0,0,1,25.74,701,35.28,35.28,0,0,1,13,692a42.68,42.68,0,0,1-7.44-11.89A33.68,33.68,0,0,1,3,667.34v-.53L14,657.16v2.49c0,2.44.08,4.79.22,7s.52,5.06,1.11,8.59a33.94,33.94,0,0,0,2.81,9.22,48.57,48.57,0,0,0,5,8.07,19.45,19.45,0,0,0,8,6,30.19,30.19,0,0,0,11.73,2.15,29.3,29.3,0,0,0,12.73-2.72,22.59,22.59,0,0,0,8.61-6.69,35.25,35.25,0,0,0,4.62-8.17,20.44,20.44,0,0,0,1.57-7.27c0-10.16-9.39-18.67-27.91-25.29-10.3-3.59-18.33-7.33-23.86-11.07-5.77-3.93-8.71-8.91-8.71-14.84,0-7,3.43-13,10.19-17.75a38.7,38.7,0,0,1,22.76-7.06,38.51,38.51,0,0,1,22.6,6.73c6.47,4.56,9.75,10.66,9.75,18.08v1.55l-10.79-3.34-.13-.67c-.09-.49-.27-1.15-.5-2a30.39,30.39,0,0,0-2-4.45,27.12,27.12,0,0,0-3.79-5.59,20.69,20.69,0,0,0-6.15-4.35,20.07,20.07,0,0,0-9-2,20.93,20.93,0,0,0-12.34,3.69A22.67,22.67,0,0,0,23,615.74a20.16,20.16,0,0,0-2.28,8.84c0,5.57,7.57,10.86,22.5,15.69,3.51,1.12,6.42,2.11,8.65,3a102.13,102.13,0,0,1,9.53,4.47,47.34,47.34,0,0,1,10,6.69,33.71,33.71,0,0,1,6.89,9.14,25.71,25.71,0,0,1,3,12.25c0,8.3-3.93,15.24-11.68,20.64a45.88,45.88,0,0,1-26.79,8"/><path class="cls-1" d="M12.9,659.66c0,2.47.08,4.82.22,7s.53,5.11,1.13,8.7a34.92,34.92,0,0,0,2.91,9.53,48,48,0,0,0,5.15,8.25,20.19,20.19,0,0,0,8.44,6.34,31.08,31.08,0,0,0,12.17,2.25A30.29,30.29,0,0,0,56.14,699a23.71,23.71,0,0,0,9-7A36.72,36.72,0,0,0,70,683.47a21.52,21.52,0,0,0,1.63-7.69q0-16.11-28.66-26.37-15.39-5.35-23.6-10.93t-8.21-13.89q0-10,9.71-16.83a37.41,37.41,0,0,1,22.1-6.85q12.69,0,22,6.52t9.25,17.16l-8.65-2.69c-.1-.5-.28-1.21-.52-2.11a29.89,29.89,0,0,0-2.09-4.67,27.87,27.87,0,0,0-4-5.83,21.27,21.27,0,0,0-6.5-4.59,20.86,20.86,0,0,0-9.48-2.12,22,22,0,0,0-13,3.89A23.8,23.8,0,0,0,22,615.23a21.18,21.18,0,0,0-2.4,9.36q0,9.21,23.3,16.77,5.22,1.65,8.58,2.94a98.13,98.13,0,0,1,9.41,4.41,45.67,45.67,0,0,1,9.78,6.54,32.27,32.27,0,0,1,6.65,8.81,24.61,24.61,0,0,1,2.91,11.72q0,11.91-11.2,19.71t-26.13,7.8A41.33,41.33,0,0,1,26.19,700a34.11,34.11,0,0,1-12.32-8.71,41.41,41.41,0,0,1-7.24-11.57,32.54,32.54,0,0,1-2.54-12.35Z"/><path class="cls-1" d="M159.22,660.18l-20.17-44.11-20.18,44.11Zm14.83,42.72v-3.82h1.13c1.2,0,1.47-.29,1.5-.33.19-.25.15-.34.13-.42l-.26-.57L161,664H117.08L101.7,697.76a1.36,1.36,0,0,0,0,.42c0,.82,1.92.9,2.75.9h1.13v3.82H87.39l47.92-104.59L183.22,702.9Z"/><path class="cls-1" d="M117.09,661.33H161l-22-48Zm58.09,38.9a2.89,2.89,0,0,0,2.39-.78,1.47,1.47,0,0,0,.3-1.52l-.3-.64-15.83-34.43H116.35l-15.68,34.43a1.82,1.82,0,0,0-.15.88c0,1.37,1.29,2.06,3.88,2.06v1.52H89.17L135.31,601l46.14,100.72h-6.27Z"/><path class="cls-1" d="M161.28,601.44h18.13v3.81h-1.13a5.21,5.21,0,0,0-2.73.45,1.38,1.38,0,0,0-.19.15l37.57,82.42,37.42-81.56a1.77,1.77,0,0,1,.26-.54V606a1.75,1.75,0,0,0-.06-.45h0s-.09-.07-.23-.15a2.83,2.83,0,0,0-1.25-.18h-1.15v-3.81h9.2L209.19,706Z"/><path class="cls-1" d="M178.28,602.58v1.53a6.28,6.28,0,0,0-3.36.65c-.65.42-.87.89-.67,1.39L212.93,691l38.52-84a.59.59,0,0,1,.15-.33,1.24,1.24,0,0,0,.14-.71,2.36,2.36,0,0,0-.14-.88,1.49,1.49,0,0,0-.75-.71,4,4,0,0,0-1.79-.32v-1.53h6.27L209.19,703.3,163.05,602.58Z"/><path class="cls-1" d="M312.78,603.71c-11.44,0-21.32,4.76-29.37,14.13s-12.2,21-12.2,34.27,4.13,25,12.27,34.38,18,14.13,29.3,14.13,21.35-4.74,29.45-14.13,12.27-21,12.27-34.38-4.12-24.93-12.26-34.32-18-14.08-29.46-14.08m0,100.6a51.19,51.19,0,0,1-37.23-15.24,51.94,51.94,0,0,1,0-73.86,52.95,52.95,0,0,1,74.48,0,51.93,51.93,0,0,1,0,73.86,51.23,51.23,0,0,1-37.24,15.24"/><path class="cls-1" d="M312.78,701.77q17.78,0,30.31-14.53t12.54-35.13q0-20.61-12.54-35.07t-30.31-14.47q-17.77,0-30.23,14.54t-12.47,35q0,20.6,12.54,35.13t30.16,14.53M276.35,616a51.81,51.81,0,0,1,72.86,0,50.81,50.81,0,0,1,0,72.27,52,52,0,0,1-72.86,0,50.83,50.83,0,0,1,0-72.27"/><path class="cls-1" d="M393.83,702.9v-3.82H395a4.16,4.16,0,0,0,.91-.11s.37-.07,1.31-.93a2.94,2.94,0,0,0,.83-2.29V666.2l-32.82-64.75h17.47v3.67h-1.13a6.46,6.46,0,0,0-1.94.21l27.78,55.26,27.05-53a3.15,3.15,0,0,0,.32-1.42c0-.45,0-1-1.55-1h-1.13v-3.67h7.71l1.93.54-32.6,64.08v29.68a3.34,3.34,0,0,0,.72,2.35,2.52,2.52,0,0,0,1.41.86l2,.27v3.67Z"/><path class="cls-1" d="M408,695.75a4.26,4.26,0,0,0,1.05,3.13,3.4,3.4,0,0,0,2.08,1.21l1.05.14v1.54H395v-1.54a5.86,5.86,0,0,0,1.12-.14,4.4,4.4,0,0,0,1.87-1.21,4,4,0,0,0,1.19-3.13V665.92L367,602.56h14.48V604c-2.58,0-3.58.61-3,1.79l28.82,57.34,28.07-55a4.25,4.25,0,0,0,.46-1.93c0-1.44-.9-2.17-2.7-2.17v-1.42h6.42l.46.13L408,665.81Z"/><path class="cls-1" d="M581,702.9v-3.82h1.13A4.17,4.17,0,0,0,583,699s.37-.07,1.32-.93a3,3,0,0,0,.81-2.29v-50H526.92v50a3.29,3.29,0,0,0,.74,2.35,2.47,2.47,0,0,0,1.4.86l2.05.27v3.67H511.82v-3.82H513a4,4,0,0,0,.9-.11s.39-.07,1.32-.93a2.94,2.94,0,0,0,.83-2.29V608.59a3.29,3.29,0,0,0-.74-2.35,2.6,2.6,0,0,0-1.41-.87l-2-.25v-3.67h19.29v3.8H530a2.62,2.62,0,0,0-2,.73,2.81,2.81,0,0,0-.88,1.6l-.16,1.09v32.69h58.21V608.59a3.29,3.29,0,0,0-.73-2.35,2.61,2.61,0,0,0-1.4-.87l-2-.25v-3.67h19.29v3.8h-1.13a2.63,2.63,0,0,0-2,.73,3,3,0,0,0-.89,1.61l-.14,1.08v87.08a3.39,3.39,0,0,0,.72,2.35,2.54,2.54,0,0,0,1.42.86l2,.27v3.67Z"/><path class="cls-1" d="M594.93,608.59v87.16a4.33,4.33,0,0,0,1.06,3.13,3.43,3.43,0,0,0,2.08,1.21l1,.12v1.56h-17v-1.56a5.13,5.13,0,0,0,1.14-.12,4.44,4.44,0,0,0,1.86-1.21,4,4,0,0,0,1.2-3.13v-51.2H525.8v51.2a4.36,4.36,0,0,0,1,3.13,3.48,3.48,0,0,0,2.09,1.21l1.06.12v1.56H513v-1.56a5.11,5.11,0,0,0,1.13-.12,4.5,4.5,0,0,0,1.86-1.21,4,4,0,0,0,1.19-3.13V608.59a4.41,4.41,0,0,0-1-3.14,3.69,3.69,0,0,0-2.09-1.22l-1-.12v-1.54h17v1.54a3.85,3.85,0,0,0-2.85,1.08,4.1,4.1,0,0,0-1.2,2.25l-.13,1.15V642.5h60.48V608.59a4.37,4.37,0,0,0-1.06-3.14,3.63,3.63,0,0,0-2.09-1.22l-1-.12v-1.54h17v1.54a3.78,3.78,0,0,0-2.83,1.08,3.92,3.92,0,0,0-1.2,2.25Z"/><path class="cls-1" d="M664.93,603.71c-11.45,0-21.34,4.76-29.38,14.13s-12.19,21-12.19,34.27,4.13,25,12.27,34.38,18,14.13,29.3,14.13,21.35-4.74,29.45-14.13,12.26-21,12.26-34.38-4.12-24.93-12.26-34.32-18-14.08-29.45-14.08m0,100.6a51.21,51.21,0,0,1-37.24-15.24,52,52,0,0,1,0-73.86,52.95,52.95,0,0,1,74.48,0,52,52,0,0,1,0,73.86,51.23,51.23,0,0,1-37.24,15.24"/><path class="cls-1" d="M664.93,701.77q17.76,0,30.31-14.53t12.54-35.13q0-20.61-12.54-35.07t-30.31-14.47q-17.77,0-30.25,14.54t-12.46,35q0,20.6,12.54,35.13t30.17,14.53M628.49,616a51.84,51.84,0,0,1,72.88,0,50.86,50.86,0,0,1,0,72.27,52,52,0,0,1-72.88,0,50.83,50.83,0,0,1,0-72.27"/><path class="cls-1" d="M743,702.9v-3.82h1.14a4,4,0,0,0,.9-.11s.37-.07,1.33-.93a3,3,0,0,0,.81-2.29v-90.5H718.35a5.4,5.4,0,0,0-3,.68c-.82.59-.93,1-1,1.05l-.3,1.86h-3.9v-7.39h85v7.39h-4.08v-1.15a3.76,3.76,0,0,0-.1-.67,6.44,6.44,0,0,0-1-1,4.51,4.51,0,0,0-2.8-.76h-29v90.5a3.39,3.39,0,0,0,.72,2.35,2.52,2.52,0,0,0,1.41.86l2.05.27v3.67Z"/><path class="cls-1" d="M711.33,602.58h82.72v5.11h-1.79a4.42,4.42,0,0,0-.14-1,4.19,4.19,0,0,0-1.42-1.59,5.42,5.42,0,0,0-3.51-1H757v91.64a4.41,4.41,0,0,0,1,3.13,3.5,3.5,0,0,0,2.1,1.21l1,.12v1.54h-17v-1.54a5.11,5.11,0,0,0,1.13-.12,4.44,4.44,0,0,0,1.86-1.21,4,4,0,0,0,1.18-3.13V604.11h-30a6.23,6.23,0,0,0-3.66.9,3,3,0,0,0-1.42,1.79l-.14.89h-1.8Z"/><path class="cls-1" d="M807.21,702.9v-3.82h1.14a4.22,4.22,0,0,0,.91-.11s.37-.07,1.32-.93a3,3,0,0,0,.82-2.29V608.59a3.24,3.24,0,0,0-.76-2.3,2.63,2.63,0,0,0-1.38-.92l-2-.25v-3.67h69.92v7.39h-4.07v-1.15A2.65,2.65,0,0,0,873,607a4.89,4.89,0,0,0-1-1,4.48,4.48,0,0,0-2.79-.76H822.48v36.11h34.79v4.34H822.48v53.38h51.58a5.26,5.26,0,0,0,3-.68c.81-.58.93-1,1-1.06l.31-1.84h3.74v7.4Z"/><path class="cls-1" d="M879.28,696.65h1.64v5.11H808.36v-1.55a5.2,5.2,0,0,0,1.12-.12,4.5,4.5,0,0,0,1.86-1.21,4,4,0,0,0,1.2-3.13V608.59a4.43,4.43,0,0,0-1-3.07,3.46,3.46,0,0,0-2.09-1.27l-1-.14v-1.54H876v5.12h-1.8a3.94,3.94,0,0,0-.14-1,4.27,4.27,0,0,0-1.42-1.59,5.43,5.43,0,0,0-3.52-1H821.35V642.5h34.78v2H821.35v55.66h52.71a6.44,6.44,0,0,0,3.65-.86,3,3,0,0,0,1.42-1.81Z"/><path class="cls-1" d="M894.08,702.9v-3.82h1.15a4,4,0,0,0,.89-.11s.38-.07,1.32-.93a2.94,2.94,0,0,0,.83-2.29V608.59a3.34,3.34,0,0,0-.73-2.35,2.66,2.66,0,0,0-1.42-.87l-2-.25v-3.67h19.44v3.8H912.4a2.61,2.61,0,0,0-2,.73,3,3,0,0,0-.89,1.61l-.13,1.08v90.41h51.57a5.28,5.28,0,0,0,3-.68c.81-.58.93-1,.94-1.06l.32-1.84h3.73v7.4Z"/><path class="cls-1" d="M966.15,696.65h1.65v5.11H895.22v-1.55a4.89,4.89,0,0,0,1.11-.12,4.23,4.23,0,0,0,1.87-1.21,4,4,0,0,0,1.2-3.13V608.59a4.36,4.36,0,0,0-1-3.14,3.49,3.49,0,0,0-2.08-1.2l-1-.14v-1.54H912.4v1.54a3.79,3.79,0,0,0-2.84,1.08,4.06,4.06,0,0,0-1.21,2.25l-.15,1.15v91.62h52.73a6.44,6.44,0,0,0,3.65-.86,3.15,3.15,0,0,0,1.42-1.81Z"/><path class="cls-2" d="M676.46,434.76c-4.21-18.51-29.49-38.64-41.39-52.53-7-8.13-10.3-13.15-17-23.16-5.39-8.12-9.08-16.38-7.36-26.24,1.29-7.37,5.94-12.26,12.87-14.56,6.51-2.15,11.91.67,16.35,5.28,4.91,5.06,10.34,9.06,17.45,10.32a3.72,3.72,0,0,1,1.71,1c4.28,4.34,9.61,6.79,15.43,8.31a5.81,5.81,0,0,0,1.9-.21c-.3-.59-.43-1.35-.89-1.73-3.82-3.32-7.47-6.76-9.46-11.53a7.83,7.83,0,0,1-.53-3.67,14.09,14.09,0,0,0-2.69-9.53c-4.88-7.32-11.66-11.85-20.5-12.13a98.19,98.19,0,0,0-19.31,1.1C607.39,308.15,598,319.39,596.71,336c-.77,10.11,2.36,19.2,7.35,27.7,4.84,8.25,10.18,16.2,15.05,24.43,5.07,8.54,16,25.23,19.66,34.86,16,41.69-18.75,43.95-27.72,32.61-2-2.5-6.45-8.08-7.88-10.72-.45-.83-5.88-8.3-6.32-8.91-6.26-9.22-18.56-14.49-28.94-16.42-9.62-1.8-19.23-.87-28.83.49-11.73,1.65-23.28,5.08-34.89,7.93-12.87,3.16-25.76,5.14-38.82,3.75-10.51-1.12-20.8-3.81-30.65-9.81-2-1.23-4.07-2.29-6.1-3.42.05.1.08.2.14.31a92.68,92.68,0,0,0,13.94,20.91c8.55,9.35,18.14,14.53,28.46,16.67,11.19,2.31,22.38,1.44,33.47-1.12,15.51-3.6,31-7.7,46.47-11.57,8.73-2.19,19.12-6,28-6.41,11-.53,17,2.54,23.85,11.21h0c9.66,12.46,21,22.7,32.32,23.46,4.17.27,8.21,1.08,17.6-1.53,19.51-5.42,26.34-23.62,23.61-35.6m-248.12-17c.09.23.18.46.28.69l-.37-.2a3.86,3.86,0,0,1,.09-.49"/><path class="cls-2" d="M595.76,417c-5.93-12.08-22.34-23.52-37-30.76-13.46-6.63-27.79-10.68-42.26-14.33-17.66-4.45-35.66-7.15-53.55-10.42-19.81-3.63-39.3-8.37-57.88-16.37-15-6.47-29.09-14.28-41.48-25-2.53-2.19-5.17-4.25-7.77-6.35a3.58,3.58,0,0,0,.09.35A102.83,102.83,0,0,0,369.33,341c9.39,13.2,21.66,23,36,30.32,15.57,7.94,32.16,12.86,49.22,16.11,23.82,4.58,47.75,8.65,71.63,12.94,13.49,2.42,29.89,4.16,43,8.32,16.15,5.12,24,11.11,31,22.81A60.67,60.67,0,0,0,595.76,417M355.64,313c.07.26.13.54.19.8l-.48-.38a4.43,4.43,0,0,1,.29-.42"/><path class="cls-2" d="M596,408.7c-6.4-10.3-9-14.11-18.57-23.53-5.34-4.83-11.74-8.61-17.95-12.43-15.07-9.27-31.7-15.12-48.74-19.83-21.46-5.94-43-11.48-64.53-17.3-19.41-5.24-38.53-11.25-56.83-19.48-16.06-7.2-31-16-44-27.84a113.27,113.27,0,0,1-32.68-51.77c-.24-.74-.42-1.48-.62-2.23a1.69,1.69,0,0,1,.14-.41c1.95,2,3.83,4,5.76,6,12.28,12.43,26.53,22.31,42.13,30.45,18,9.37,37,16.22,56.41,22.19,20.47,6.29,41.05,12.26,61.5,18.6a376.77,376.77,0,0,1,50.68,19.62c29.83,14.25,48.78,27.85,58.11,47.72,6.31,12.87,9.18,30.25,9.18,30.25"/><path class="cls-2" d="M590.06,374.14c-.89-4.5-1.65-9-2.71-13.49-6.24-26.56-19.5-49.1-39.19-67.91C534.78,280,519.45,270,503,261.68a361.58,361.58,0,0,0-62-24.09c-23.67-7-47.49-13.41-71.3-19.9-5.94-1.63-9.11-2.38-14.83-4.25-2.51-.8-5.55-2-5.55-2C325.74,202.94,302,187,302,164.8a40.17,40.17,0,0,1,10.58-27.21c.2-.45.38-.91.58-1.37-44.11,36.92-15.71,75.56,2.33,88C333.1,236.31,352.24,245.5,372,253.5c18.83,7.63,38.1,14,57.36,20.47,20,6.74,40.06,13.48,60,20.59a294.07,294.07,0,0,1,45.06,20.35,147.51,147.51,0,0,1,29.76,21.34c9.51,9,16.54,19.76,22.17,31.48,1.24,2.58,2.44,5.2,3.65,7.79l.21-.06a9.65,9.65,0,0,0-.09-1.32"/><polygon class="cls-2" points="523.72 6.61 517.29 26.02 496.86 25.94 513.34 38.02 506.93 57.45 523.53 45.51 540.01 57.6 533.79 38.13 550.39 26.18 529.94 26.08 523.72 6.61"/><path class="cls-2" d="M543.87,63,523.52,48,503,62.78l7.91-24L490.58,23.87l25.24.1,7.93-24,7.69,24,25.25.13-20.5,14.75ZM523.55,43l12.6,9.24-4.76-14.89,12.7-9.13-15.65-.08-4.76-14.9-4.91,14.85L503.14,28l12.61,9.24-4.91,14.87Z"/><polygon class="cls-2" points="610.32 76.3 593.83 64.2 577.22 76.15 583.64 56.73 567.16 44.64 587.6 44.72 594.01 25.3 600.23 44.78 620.67 44.88 604.08 56.83 610.32 76.3"/><path class="cls-2" d="M614.18,81.68l-20.36-15L573.3,81.48l7.93-24L560.88,42.57l25.24.1,7.92-24,7.68,24.07,25.26.12-20.5,14.75Zm-20.33-20,12.6,9.25L601.68,56l12.7-9.13-15.65-.08L594,31.92l-4.9,14.85-15.65-.06L586.05,56l-4.91,14.84Z"/><polygon class="cls-2" points="448.18 6.61 441.94 26.08 421.5 26.18 438.1 38.13 431.86 57.6 448.36 45.51 464.95 57.45 458.54 38.02 475.03 25.94 454.59 26.02 448.18 6.61"/><path class="cls-2" d="M428,63l7.71-24L415.2,24.17,440.44,24l7.71-24,7.91,24,25.25-.1L461,38.79l7.91,24L448.36,48Zm-.2-34.77,12.71,9.14-4.78,14.89L448.34,43,461,52.11l-4.91-14.86L468.74,28l-15.63.06-4.9-14.85-4.78,14.9Z"/><polygon class="cls-2" points="361.57 76.3 378.06 64.2 394.66 76.15 388.25 56.73 404.73 44.64 384.29 44.72 377.88 25.3 371.65 44.78 351.2 44.88 367.8 56.83 361.57 76.3"/><path class="cls-2" d="M357.71,81.67l7.69-24.05L344.9,42.87l25.26-.12,7.69-24.06,7.92,24,25.24-.1L390.66,57.5l7.91,24-20.5-14.75ZM357.5,46.9,370.2,56l-4.76,14.9L378,61.68l12.7,9.13L385.84,56l12.62-9.25-15.65.06-4.9-14.85-4.76,14.9Z"/><rect class="cls-2" y="761.1" width="334.45" height="13.23"/><path class="cls-2" d="M360.46,747.58h8.86l10.6,14.78a58.3,58.3,0,0,1,3.28,5h.13a58,58,0,0,1,3.08-5.33l9.51-14.46h8.93v42.34H395V768.33c0-1.54,0-3.27.07-4.56H395a52.77,52.77,0,0,1-2.83,4.5l-6.87,10.41H381l-7.83-10.8a37.48,37.48,0,0,1-2.83-4.11h-.13c.07,1.42.07,3.08.07,4.24v21.91h-9.83Z"/><path class="cls-2" d="M426.45,747.39h8.09l17.54,42.53H441.54l-4-10.09H423.75l-3.86,10.09H409.81ZM434.54,772l-2-5.85c-1-2.89-1.48-4.69-1.8-6h-.13a49,49,0,0,1-2,6.11L426.51,772Z"/><path class="cls-2" d="M457,747.58h8.87l10.6,14.78c1.28,1.8,2.31,3.34,3.28,5h.12A56.13,56.13,0,0,1,483,762l9.51-14.46h8.93v42.34H491.6V768.33c0-1.54,0-3.27.06-4.56h-.06c-.39.9-2.12,3.41-2.83,4.5l-6.87,10.41h-4.31l-7.84-10.8a37.49,37.49,0,0,1-2.82-4.11h-.13c.06,1.42.06,3.08.06,4.24v21.91H457Z"/><path class="cls-2" d="M523,747.39h8.1l17.53,42.53H538.12l-4-10.09H520.32l-3.85,10.09H506.38Zm8.1,24.61-2-5.85c-1-2.89-1.47-4.69-1.79-6h-.13a49,49,0,0,1-2,6.11L523.09,772Z"/><rect class="cls-2" x="553.61" y="747.58" width="9.83" height="42.34"/><path class="cls-2" d="M585,747.39h8.09l17.54,42.53H600.12l-4-10.09H582.33l-3.86,10.09H568.39ZM593.12,772l-2-5.85c-1-2.89-1.48-4.69-1.8-6h-.13a49,49,0,0,1-2,6.11L585.09,772Z"/><path class="cls-2" d="M342.41,530.7c-77-49.6-122.88-133.61-122.88-224.72S265.47,130.87,342.41,81.26l3.43-2.21-7.15-11.16-3.45,2.22c-80.76,52.06-129,140.24-129,235.87a280.6,280.6,0,0,0,112,224.07H0v13.22H363.1l-12.73-7.6c-3-1.76-5.81-3.58-8-5"/><path class="cls-2" d="M655.31,530.05A280.63,280.63,0,0,0,767.29,306c0-96.22-48.67-184.68-130.19-236.65l-3.43-2.18-7.18,11.14L630,80.5C707.64,130,754,214.3,754,306c0,91.11-45.94,175.12-122.88,224.72-2.16,1.4-5,3.22-8,5l-12.73,7.6H971.89V530.05Z"/><rect class="cls-2" x="627.76" y="761.1" width="344.12" height="13.23"/></g></g></svg>
